PathFileType	4	(x/y/z)	S01_SL_Cal.trc
DataRate	CameraRate	NumFrames	NumMarkers	Units	OrigDataRate	OrigDataStartFrame	OrigNumFrames
240	240	7	51	mm	240	1801	2400
Frame#	Time	Sternum			R.Acromium			L.Acromium			Top.Head			R.ASIS			L.ASIS			R.PSIS			L.PSIS			R.Great.Tro			L.Great.Tro			R.Iliac.Crest			L.Iliac.Crest			V.Sacral			R.Thigh.Upper.Post			R.Thigh.Lower.Ant			R.Thigh.Lower.Post			R.Thigh.Upper.Ant			R.Knee.Lat			R.Knee.Med			R.Shank.Upper.Post			R.Shank.Lower.Ant			R.Shank.Lower.Post			R.Shank.Upper.Ant			R.Ankle.Lat			R.Ankle.Med			R.Heel.Upper			R.Heel.Med			R.Heel.Lat			R.Toe.Lat			R.Toe.Med			R.Toe.Tip			L.Thigh.Upper.Post			L.Thigh.Lower.Ant			L.Thigh.Lower.Post			L.Thigh.Upper.Ant			L.Knee.Lat			L.Knee.Med			L.Shank.Upper.Post			L.Shank.Lower.Ant			L.Shank.Lower.Post			L.Shank.Upper.Ant			L.Ankle.Lat			L.Ankle.Med			L.Heel.Upper			L.Heel.Med			L.Heel.Lat			L.Toe.Lat			L.Toe.Med			L.Toe.Tip			Cervical.Spine			Back			
		X1	Y1	Z1	X2	Y2	Z2	X3	Y3	Z3	X4	Y4	Z4	X5	Y5	Z5	X6	Y6	Z6	X7	Y7	Z7	X8	Y8	Z8	X9	Y9	Z9	X10	Y10	Z10	X11	Y11	Z11	X12	Y12	Z12	X13	Y13	Z13	X14	Y14	Z14	X15	Y15	Z15	X16	Y16	Z16	X17	Y17	Z17	X18	Y18	Z18	X19	Y19	Z19	X20	Y20	Z20	X21	Y21	Z21	X22	Y22	Z22	X23	Y23	Z23	X24	Y24	Z24	X25	Y25	Z25	X26	Y26	Z26	X27	Y27	Z27	X28	Y28	Z28	X29	Y29	Z29	X30	Y30	Z30	X31	Y31	Z31	X32	Y32	Z32	X33	Y33	Z33	X34	Y34	Z34	X35	Y35	Z35	X36	Y36	Z36	X37	Y37	Z37	X38	Y38	Z38	X39	Y39	Z39	X40	Y40	Z40	X41	Y41	Z41	X42	Y42	Z42	X43	Y43	Z43	X44	Y44	Z44	X45	Y45	Z45	X46	Y46	Z46	X47	Y47	Z47	X48	Y48	Z48	X49	Y49	Z49	X50	Y50	Z50	X51	Y51	Z51	

1801	7.5	728.12	1309.9	261.05	587.44	1552.4	441.94	546.83	1563.2	116.88	527.85	1868.9	281.86	710.31	1045.1	419.59	702.34	1045.6	148.35	469.54	1079.8	333.04	463.73	1078.2	229.75	630.02	991.07	501.83	588.74	994.97	73.504	616.1	1141.2	485.11	584	1124.3	79.922	454.42	1042.4	279.93	586.02	694.22	496.92	645.51	614.25	471.99	577.32	606.14	481.39	657.86	703.39	486.86	591.4	536.62	477.38	595.6	526.74	335.33	509.89	390.27	513.59	560.26	296.81	480.97	496.63	320.18	507.99	569.82	369.38	492.09	476	111.77	490.07	509.18	109.65	398.41	408.57	78.208	435.78	420.2	47.121	407.2	416.59	48.873	471.82	605.13	34.225	529.03	636.52	39.953	405.79	699.99	54.601	460.99	522.4	726.09	84.751	596.12	644.74	72.494	521.03	635.21	95.564	588.7	739.51	60.313	554.89	541.29	79.419	589.55	528.72	216.22	483.24	411.27	56.025	539.67	316.05	66.302	478.7	333.46	52.916	544.92	392.97	64.475	459.03	112.87	75.438	491.53	118.35	168.67	391.15	79.352	120.57	401.87	51.794	152.78	398.95	53.589	90.915	602.64	37.502	41.684	628.48	46.928	163.35	690.09	57.949	112.44	484.37	1597.7	288.08	427.3	1277.3	305.48
1802	7.5042	728.1	1309.9	261.05	587.43	1552.4	441.93	546.81	1563.2	116.88	527.87	1868.9	281.85	710.31	1045.1	419.58	702.32	1045.6	148.35	469.54	1079.8	333.04	463.73	1078.2	229.75	630.02	991.07	501.83	588.73	994.97	73.501	616.1	1141.2	485.1	583.99	1124.3	79.918	454.42	1042.4	279.93	586.02	694.21	496.92	645.51	614.25	471.99	577.32	606.14	481.38	657.86	703.39	486.85	591.4	536.62	477.38	595.6	526.74	335.33	509.89	390.26	513.57	560.27	296.81	480.97	496.63	320.18	507.99	569.82	369.38	492.09	476	111.77	490.06	509.18	109.65	398.4	408.57	78.207	435.78	420.2	47.121	407.2	416.59	48.873	471.82	605.13	34.228	529.03	636.52	39.954	405.79	699.99	54.602	460.99	522.39	726.09	84.748	596.11	644.73	72.491	521.03	635.21	95.562	588.69	739.51	60.309	554.88	541.29	79.417	589.55	528.72	216.22	483.23	411.27	56.024	539.67	316.05	66.301	478.7	333.46	52.916	544.92	392.96	64.474	459.03	112.87	75.437	491.53	118.35	168.67	391.15	79.349	120.57	401.87	51.792	152.78	398.95	53.587	90.915	602.64	37.503	41.684	628.48	46.929	163.35	690.09	57.953	112.44	484.36	1597.7	288.07	427.29	1277.3	305.48
1803	7.5083	728.09	1309.9	261.04	587.42	1552.4	441.92	546.79	1563.2	116.87	527.88	1868.9	281.84	710.3	1045.1	419.58	702.31	1045.6	148.34	469.53	1079.8	333.04	463.72	1078.2	229.75	630.02	991.07	501.82	588.72	994.97	73.497	616.09	1141.2	485.1	583.98	1124.3	79.914	454.41	1042.4	279.93	586.02	694.21	496.91	645.51	614.25	471.98	577.33	606.14	481.38	657.86	703.39	486.85	591.41	536.62	477.37	595.6	526.74	335.33	509.9	390.26	513.56	560.27	296.81	480.96	496.64	320.18	507.98	569.82	369.38	492.08	476	111.77	490.06	509.18	109.65	398.4	408.57	78.206	435.78	420.2	47.121	407.2	416.59	48.872	471.82	605.13	34.231	529.03	636.52	39.954	405.79	699.99	54.602	460.99	522.38	726.09	84.745	596.1	644.73	72.488	521.02	635.21	95.56	588.68	739.51	60.306	554.87	541.29	79.415	589.54	528.72	216.21	483.22	411.27	56.023	539.66	316.05	66.3	478.69	333.46	52.917	544.91	392.96	64.472	459.03	112.87	75.436	491.53	118.35	168.67	391.15	79.347	120.57	401.86	51.79	152.78	398.95	53.585	90.915	602.64	37.504	41.683	628.48	46.93	163.35	690.09	57.958	112.44	484.35	1597.7	288.07	427.28	1277.3	305.48
1804	7.5125	728.08	1309.9	261.04	587.41	1552.4	441.91	546.76	1563.2	116.87	527.9	1868.9	281.83	710.3	1045.1	419.57	702.3	1045.6	148.34	469.52	1079.8	333.04	463.71	1078.2	229.75	630.01	991.07	501.81	588.71	994.97	73.494	616.09	1141.2	485.09	583.97	1124.3	79.909	454.4	1042.4	279.93	586.02	694.21	496.91	645.51	614.25	471.98	577.33	606.13	481.37	657.86	703.39	486.84	591.41	536.61	477.37	595.6	526.74	335.32	509.9	390.25	513.54	560.27	296.81	480.96	496.64	320.18	507.98	569.83	369.38	492.08	476	111.77	490.06	509.18	109.65	398.4	408.57	78.205	435.78	420.2	47.12	407.2	416.59	48.872	471.82	605.13	34.234	529.03	636.52	39.955	405.79	699.99	54.603	460.99	522.37	726.08	84.742	596.09	644.73	72.485	521.01	635.2	95.558	588.67	739.51	60.302	554.86	541.29	79.413	589.54	528.73	216.21	483.21	411.27	56.022	539.66	316.05	66.298	478.68	333.46	52.917	544.9	392.96	64.47	459.03	112.86	75.435	491.53	118.34	168.67	391.15	79.344	120.57	401.86	51.788	152.78	398.95	53.583	90.915	602.64	37.505	41.683	628.48	46.931	163.35	690.09	57.962	112.44	484.34	1597.7	288.06	427.27	1277.3	305.48
1805	7.5167	728.07	1309.9	261.03	587.4	1552.4	441.91	546.73	1563.2	116.87	527.91	1868.9	281.82	710.3	1045.1	419.56	702.29	1045.6	148.33	469.52	1079.8	333.04	463.7	1078.2	229.75	630.01	991.07	501.81	588.7	994.97	73.491	616.09	1141.2	485.09	583.96	1124.3	79.905	454.4	1042.4	279.93	586.02	694.21	496.9	645.51	614.25	471.97	577.33	606.13	481.37	657.86	703.39	486.84	591.41	536.61	477.36	595.6	526.73	335.32	509.9	390.24	513.52	560.27	296.81	480.96	496.64	320.18	507.98	569.83	369.38	492.08	476	111.77	490.06	509.18	109.65	398.4	408.57	78.204	435.78	420.2	47.12	407.2	416.59	48.872	471.82	605.13	34.236	529.03	636.52	39.956	405.79	699.99	54.604	460.99	522.36	726.08	84.74	596.08	644.73	72.482	521	635.2	95.556	588.66	739.5	60.299	554.86	541.29	79.412	589.53	528.73	216.21	483.21	411.27	56.022	539.65	316.05	66.297	478.67	333.45	52.918	544.89	392.96	64.469	459.03	112.86	75.434	491.52	118.34	168.67	391.15	79.341	120.56	401.86	51.785	152.78	398.95	53.58	90.914	602.64	37.506	41.683	628.48	46.932	163.35	690.08	57.966	112.44	484.34	1597.7	288.06	427.27	1277.3	305.47
1806	7.5208	728.06	1309.9	261.03	587.39	1552.4	441.9	546.7	1563.2	116.86	527.93	1868.9	281.81	710.29	1045.1	419.55	702.27	1045.6	148.32	469.51	1079.8	333.04	463.69	1078.2	229.74	630.01	991.07	501.8	588.69	994.97	73.487	616.08	1141.2	485.08	583.95	1124.3	79.9	454.39	1042.4	279.93	586.02	694.21	496.9	645.52	614.24	471.97	577.34	606.13	481.36	657.86	703.39	486.83	591.42	536.61	477.36	595.6	526.73	335.31	509.9	390.23	513.51	560.27	296.8	480.96	496.65	320.19	507.98	569.83	369.38	492.08	476	111.77	490.06	509.18	109.65	398.4	408.57	78.203	435.78	420.2	47.12	407.2	416.59	48.872	471.82	605.13	34.239	529.03	636.52	39.956	405.79	699.99	54.604	460.99	522.35	726.08	84.737	596.07	644.73	72.48	520.99	635.2	95.554	588.65	739.5	60.295	554.85	541.29	79.41	589.53	528.73	216.2	483.2	411.27	56.021	539.64	316.05	66.296	478.66	333.45	52.919	544.89	392.96	64.467	459.02	112.86	75.433	491.52	118.34	168.67	391.15	79.338	120.56	401.86	51.782	152.78	398.95	53.578	90.914	602.64	37.507	41.682	628.48	46.933	163.35	690.08	57.969	112.44	484.33	1597.7	288.05	427.26	1277.3	305.47
1807	7.525	728.05	1309.9	261.02	587.38	1552.4	441.89	546.67	1563.2	116.86	527.94	1868.9	281.79	710.29	1045.1	419.55	702.26	1045.6	148.32	469.51	1079.8	333.04	463.68	1078.2	229.74	630.01	991.07	501.79	588.68	994.97	73.484	616.08	1141.2	485.08	583.94	1124.3	79.896	454.39	1042.4	279.93	586.02	694.21	496.9	645.52	614.24	471.96	577.34	606.13	481.36	657.87	703.4	486.83	591.42	536.61	477.36	595.6	526.73	335.31	509.9	390.22	513.49	560.28	296.8	480.95	496.65	320.19	507.97	569.83	369.37	492.07	476	111.77	490.06	509.18	109.65	398.4	408.57	78.203	435.78	420.21	47.119	407.2	416.59	48.871	471.82	605.13	34.241	529.03	636.52	39.957	405.79	699.99	54.604	460.99	522.34	726.08	84.735	596.06	644.73	72.478	520.97	635.2	95.552	588.64	739.5	60.292	554.84	541.29	79.409	589.52	528.73	216.2	483.19	411.27	56.021	539.64	316.05	66.296	478.66	333.45	52.921	544.88	392.96	64.466	459.02	112.86	75.432	491.52	118.34	168.67	391.15	79.335	120.56	401.86	51.779	152.78	398.95	53.575	90.914	602.64	37.508	41.682	628.47	46.935	163.35	690.08	57.973	112.44	484.32	1597.7	288.04	427.25	1277.3	305.47
